<svg width="18" height="22" viewBox="0 0 18 22" fill="none" xmlns="http://www.w3.org/2000/svg">
<path d="M14.8389 11.5804C14.8496 10.7457 15.072 9.92737 15.4851 9.20142C15.8983 8.47546 16.4889 7.86552 17.202 7.42835C16.749 6.78319 16.1514 6.25225 15.4566 5.8777C14.7619 5.50314 13.9891 5.2953 13.1997 5.27067C11.5157 5.09441 9.88319 6.2755 9.02508 6.2755C8.15036 6.2755 6.82916 5.28817 5.40645 5.31736C4.4862 5.34701 3.58934 5.61386 2.80326 6.09192C2.01718 6.56998 1.36869 7.24294 0.920971 8.04523C-1.01846 11.3936 0.428181 16.3147 2.28599 19.0213C3.21549 20.3467 4.30182 21.8271 5.72324 21.7746C7.1142 21.7171 7.63369 20.8901 9.31269 20.8901C10.9761 20.8901 11.4635 21.7746 12.9138 21.7412C14.4063 21.7171 15.3467 20.41 16.2436 19.0721C16.9115 18.1277 17.4254 17.084 17.7663 15.9796C16.8992 15.6139 16.1592 15.0017 15.6386 14.2194C15.118 13.4371 14.8399 12.5193 14.8389 11.5804Z" fill="black"/>
<path d="M12.0996 3.49062C12.9134 2.51641 13.3143 1.26423 13.2172 0C11.9739 0.13022 10.8254 0.722779 10.0006 1.65961C9.59735 2.11728 9.28849 2.64971 9.09169 3.22648C8.8949 3.80325 8.81402 4.41304 8.8537 5.021C9.47558 5.02739 10.0908 4.89297 10.653 4.62788C11.2153 4.3628 11.7099 3.97395 12.0996 3.49062Z" fill="black"/>
</svg>
