<svg width="24" height="26" viewBox="0 0 24 26" fill="none" xmlns="http://www.w3.org/2000/svg">
<path d="M0.183221 0.825875C0.0651966 1.09331 0 1.42097 0 1.80207V23.9181C0 24.3003 0.0653795 24.6282 0.183718 24.8957L12.2175 12.8602L0.183221 0.825875Z" fill="black"/>
<path d="M0.878894 25.6147C1.32491 25.8054 1.90665 25.7448 2.541 25.3851L16.6978 17.3405L12.9246 13.5673L0.878894 25.6147Z" fill="black"/>
<path d="M17.6002 16.8287L22.042 14.3051C23.439 13.5101 23.439 12.2111 22.042 11.4171L17.5988 8.89235L13.6317 12.8601L17.6002 16.8287Z" fill="black"/>
<path d="M16.6971 8.37994L2.541 0.336076C1.90631 -0.0245908 1.32428 -0.084695 0.878174 0.106614L12.9245 12.153L16.6971 8.37994Z" fill="black"/>
</svg>
