<svg width="15" height="15" viewBox="0 0 15 15" fill="none" xmlns="http://www.w3.org/2000/svg">
<path d="M7.02474 4.68333C5.73451 4.68333 4.68158 5.73626 4.68158 7.0265C4.68158 8.31673 5.73451 9.36966 7.02474 9.36966C8.31498 9.36966 9.36791 8.31673 9.36791 7.0265C9.36791 5.73626 8.31498 4.68333 7.02474 4.68333ZM14.0525 7.0265C14.0525 6.05619 14.0613 5.09466 14.0068 4.12611C13.9523 3.00111 13.6956 2.00267 12.873 1.18001C12.0486 0.355601 11.0519 0.100718 9.92689 0.0462259C8.95658 -0.00826624 7.99505 0.000522851 7.0265 0.000522851C6.05619 0.000522851 5.09466 -0.00826624 4.12611 0.0462259C3.00111 0.100718 2.00267 0.357359 1.18002 1.18001C0.355601 2.00443 0.100718 3.00111 0.046226 4.12611C-0.00826624 5.09642 0.000522851 6.05794 0.000522851 7.0265C0.000522851 7.99505 -0.00826624 8.95833 0.046226 9.92689C0.100718 11.0519 0.357359 12.0503 1.18002 12.873C2.00443 13.6974 3.00111 13.9523 4.12611 14.0068C5.09642 14.0613 6.05794 14.0525 7.0265 14.0525C7.99681 14.0525 8.95833 14.0613 9.92689 14.0068C11.0519 13.9523 12.0503 13.6956 12.873 12.873C13.6974 12.0486 13.9523 11.0519 14.0068 9.92689C14.063 8.95833 14.0525 7.99681 14.0525 7.0265ZM7.02474 10.6318C5.02962 10.6318 3.41947 9.02162 3.41947 7.0265C3.41947 5.03138 5.02962 3.42123 7.02474 3.42123C9.01986 3.42123 10.63 5.03138 10.63 7.0265C10.63 9.02162 9.01986 10.6318 7.02474 10.6318ZM10.7777 4.11556C10.3119 4.11556 9.93568 3.73939 9.93568 3.27357C9.93568 2.80775 10.3119 2.43158 10.7777 2.43158C11.2435 2.43158 11.6197 2.80775 11.6197 3.27357C11.6198 3.38418 11.5981 3.49373 11.5559 3.59595C11.5136 3.69817 11.4516 3.79104 11.3734 3.86926C11.2951 3.94747 11.2023 4.00949 11.1001 4.05175C10.9978 4.09402 10.8883 4.1157 10.7777 4.11556Z" fill="black"/>
</svg>
