<svg width="20" height="19" viewBox="0 0 20 19" fill="none" xmlns="http://www.w3.org/2000/svg">
<path d="M16 17H4V19H2V17H1C0.44772 17 0 16.5523 0 16V1C0 0.44771 0.44772 0 1 0H19C19.5523 0 20 0.44771 20 1V16C20 16.5523 19.5523 17 19 17H18V19H16V17ZM2 15H18V2H2V15ZM11 10.874V14H9.00002V10.874C7.27478 10.4299 6 8.86381 6 7C6 4.79086 7.79086 3 10 3C12.2091 3 14 4.79086 14 7C14 8.86381 12.7252 10.4299 11 10.874ZM10 9.00001C11.1046 9.00001 12 8.10461 12 7C12 5.89543 11.1046 5 10 5C8.89542 5 8.00002 5.89543 8.00002 7C8.00002 8.10461 8.89542 9.00001 10 9.00001Z" fill="#374D40"/>
</svg>
