<svg width="16" height="16" viewBox="0 0 16 16" fill="none" xmlns="http://www.w3.org/2000/svg">
<path fill-rule="evenodd" clip-rule="evenodd" d="M2.25 0C1.65326 0 1.08097 0.237053 0.65901 0.65901C0.237053 1.08097 0 1.65326 0 2.25V13.5C0 14.0967 0.237053 14.669 0.65901 15.091C1.08097 15.5129 1.65326 15.75 2.25 15.75H13.5C14.0967 15.75 14.669 15.5129 15.091 15.091C15.5129 14.669 15.75 14.0967 15.75 13.5V2.25C15.75 1.65326 15.5129 1.08097 15.091 0.65901C14.669 0.237053 14.0967 0 13.5 0H2.25ZM3.48975 4.83413C3.8463 4.83413 4.18825 4.69249 4.44037 4.44037C4.69249 4.18825 4.83413 3.8463 4.83413 3.48975C4.83413 3.1332 4.69249 2.79125 4.44037 2.53913C4.18825 2.28701 3.8463 2.14538 3.48975 2.14538C3.1332 2.14538 2.79125 2.28701 2.53913 2.53913C2.28701 2.79125 2.14538 3.1332 2.14538 3.48975C2.14538 3.8463 2.28701 4.18825 2.53913 4.44037C2.79125 4.69249 3.1332 4.83413 3.48975 4.83413ZM4.61475 13.2896V5.88825H2.36475V13.2896H4.61475ZM6.10875 5.88825H8.35875V6.87937C8.69063 6.35962 9.41963 5.65987 10.7753 5.65987C12.393 5.65987 13.2716 6.732 13.2716 8.77162C13.2716 8.8695 13.2806 9.31612 13.2806 9.31612V13.2885H11.0306V9.31725C11.0306 8.77162 10.9159 7.6995 9.70312 7.6995C8.48925 7.6995 8.38688 9.04725 8.35875 9.92925V13.2885H6.10875V5.88825Z" fill="black"/>
</svg>
