<svg width="15" height="15" viewBox="0 0 15 15" fill="none" xmlns="http://www.w3.org/2000/svg">
<path d="M4.63907 11.25C6.68349 11.25 8.34077 9.571 8.34077 7.49994C8.34077 5.42888 6.68336 3.75 4.63907 3.75C2.59478 3.75 0.9375 5.42837 0.9375 7.49994C0.9375 9.5715 2.59465 11.25 4.63907 11.25Z" fill="black"/>
<path d="M10.5507 11.0299C11.5729 11.0299 12.4016 9.44958 12.4016 7.49994C12.4016 5.55079 11.5729 3.96993 10.5507 3.96993C9.52858 3.96993 8.69988 5.55079 8.69988 7.49994C8.69988 9.44908 9.52858 11.0299 10.5507 11.0299Z" fill="black"/>
<path d="M13.4115 10.6627C13.771 10.6627 14.0625 9.24673 14.0625 7.49994C14.0625 5.75327 13.7713 4.3372 13.4117 4.3372C13.052 4.3372 12.7606 5.75365 12.7606 7.49994C12.7606 9.24622 13.052 10.6627 13.4115 10.6627Z" fill="black"/>
</svg>
